<?xml version="1.0" encoding="UTF-8" standalone="no"?>
<svg
   xmlns:dc="http://purl.org/dc/elements/1.1/"
   xmlns:cc="http://creativecommons.org/ns#"
   xmlns:rdf="http://www.w3.org/1999/02/22-rdf-syntax-ns#"
   xmlns:svg="http://www.w3.org/2000/svg"
   xmlns="http://www.w3.org/2000/svg"
   xmlns:sodipodi="http://sodipodi.sourceforge.net/DTD/sodipodi-0.dtd"
   xmlns:inkscape="http://www.inkscape.org/namespaces/inkscape"
   version="1.1"
   id="svg2"
   xml:space="preserve"
   width="1122.52"
   height="793.70135"
   viewBox="0 0 1122.52 793.70135"
   sodipodi:docname="BA Logo.ai"><metadata
     id="metadata8"><rdf:RDF><cc:Work
         rdf:about=""><dc:format>image/svg+xml</dc:format><dc:type
           rdf:resource="http://purl.org/dc/dcmitype/StillImage" /></cc:Work></rdf:RDF></metadata><defs
     id="defs6"><clipPath
       clipPathUnits="userSpaceOnUse"
       id="clipPath20"><path
         d="M 0,595.276 H 841.89 V 0 H 0 Z"
         id="path18" /></clipPath></defs><sodipodi:namedview
     pagecolor="#ffffff"
     bordercolor="#666666"
     borderopacity="1"
     objecttolerance="10"
     gridtolerance="10"
     guidetolerance="10"
     inkscape:pageopacity="0"
     inkscape:pageshadow="2"
     inkscape:window-width="640"
     inkscape:window-height="480"
     id="namedview4" /><g
     id="g10"
     inkscape:groupmode="layer"
     inkscape:label="BA Logo"
     transform="matrix(1.3333333,0,0,-1.3333333,0,793.70133)"><path
       d="M 0,0 H 841.89 V 595.276 H 0 Z"
       style="fill:#2f2d2e;fill-opacity:1;fill-rule:nonzero;stroke:none"
       id="path12" /><g
       id="g14"><g
         id="g16"
         clip-path="url(#clipPath20)"><g
           id="g22"
           transform="translate(532.3564,261.2711)"><path
             d="m 0,0 -71.283,176.906 h -27.222 l -6.315,-15.719 c 6.499,-8.93 10.789,-19.654 11.831,-31.481 0.171,-1.936 0.235,-3.85 0.239,-5.75 l 7.77,19.385 56.115,-139.264 6.007,-14.655 c 2.166,-4.136 6.398,-6.764 11.148,-6.764 4.199,0 8.112,2.078 10.464,5.561 C 1.103,-8.3 1.569,-3.896 0,0"
             style="fill:#f5f6f6;fill-opacity:1;fill-rule:nonzero;stroke:none"
             id="path24" /></g><g
           id="g26"
           transform="translate(377.3643,357.9313)"><path
             d="m 0,0 h -23.931 c -6.343,0 -11.483,-5.125 -11.521,-11.459 0,-0.024 -0.006,-0.045 -0.006,-0.069 0,-6.366 5.161,-11.527 11.527,-11.527 h 34.427 c 14.779,0 27.191,-10.006 30.916,-23.603 0.741,-2.706 1.17,-5.542 1.17,-8.483 v -3.314 c 0,-3.466 -0.555,-6.803 -1.58,-9.928 -2.142,-6.533 1.111,-13.791 7.775,-15.48 1.404,-0.356 2.804,-0.431 4.153,-0.287 4.276,0.455 8.021,3.236 9.553,7.32 2.34,6.238 3.623,12.988 3.623,20.034 0,14.086 -5.14,26.972 -13.611,36.951 -1.652,1.947 -3.43,3.78 -5.324,5.49 -3.231,2.918 -6.774,5.496 -10.605,7.626 4.518,4.93 8.074,10.743 10.426,17.13 2.544,6.906 3.679,14.486 2.954,22.422 C 49.354,39.316 47.509,45.4 44.7,50.909 35.933,68.112 17.601,79.608 -2.759,79.608 h -75.075 v -193.669 h 15.91 24.407 l 9.927,23.521 H -54.311 V 56.086 H 0 c 14.714,0 26.642,-11.928 26.642,-26.642 V 26.642 C 26.642,11.928 14.714,0 0,0"
             style="fill:#f5f6f6;fill-opacity:1;fill-rule:nonzero;stroke:none"
             id="path28" /></g><g
           id="g30"
           transform="translate(488.2256,267.4196)"><path
             d="M 0,0 H -30.885 -59.217 -90.35 c -0.085,0 -0.164,-0.025 -0.248,-0.028 h -5.334 l 13.361,32.963 c 2.404,5.939 -0.021,12.739 -5.641,15.816 -3.155,1.726 -6.909,2.025 -10.302,0.816 -3.39,-1.21 -6.109,-3.817 -7.462,-7.153 l -17.189,-42.442 h -0.004 l -9.481,-23.521 h 70.671 v 0.048 l 70.822,-0.018 z"
             style="fill:#f5f6f6;fill-opacity:1;fill-rule:nonzero;stroke:none"
             id="path32" /></g><g
           id="g34"
           transform="translate(107.9272,164.1989)"><path
             d="M 0,0 C 0,-2.275 -0.758,-4.041 -2.267,-5.296 -3.778,-6.551 -6.182,-7.181 -9.48,-7.181 h -9.927 V 7.663 h 11.521 c 1.832,0 3.332,-0.306 4.502,-0.91 C -2.214,6.146 -1.356,5.278 -0.815,4.15 -0.272,3.023 0,1.671 0,0.098 Z m -8.778,27.164 c 2.724,0 4.765,-0.574 6.127,-1.723 1.362,-1.151 2.043,-2.885 2.043,-5.204 0,-2.214 -0.611,-3.882 -1.835,-5.011 -1.222,-1.127 -3.036,-1.69 -5.443,-1.69 H -19.407 V 27.164 Z M 2.361,8.57 c -1.362,1.054 -2.978,1.72 -4.85,1.997 1.872,0.34 3.439,1.005 4.706,1.996 1.265,0.989 2.208,2.18 2.825,3.573 0.617,1.392 0.926,2.889 0.926,4.486 0,2.594 -0.501,4.829 -1.5,6.701 -1.002,1.872 -2.51,3.321 -4.532,4.34 -2.022,1.024 -4.533,1.533 -7.535,1.533 h -11.808 -2.651 -3.83 v -46.409 h 3.83 2.651 12.352 c 2.745,0 5.149,0.523 7.214,1.565 2.064,1.041 3.65,2.522 4.755,4.437 1.106,1.915 1.659,4.126 1.659,6.637 v 0.097 C 6.573,1.354 6.212,3.055 5.488,4.63 4.765,6.203 3.723,7.52 2.361,8.57"
             style="fill:#f5f6f6;fill-opacity:1;fill-rule:nonzero;stroke:none"
             id="path36" /></g><g
           id="g38"
           transform="translate(143.8203,191.235)"><path
             d="m 0,0 h 12.162 c 1.255,0 2.355,-0.299 3.302,-0.895 0.947,-0.595 1.682,-1.441 2.205,-2.535 0.519,-1.096 0.782,-2.358 0.782,-3.784 0,-1.427 -0.263,-2.684 -0.782,-3.781 -0.523,-1.097 -1.262,-1.943 -2.221,-2.538 -0.955,-0.596 -2.052,-0.895 -3.286,-0.895 H 0 Z m 18.945,-18.961 c 2.032,1.109 3.611,2.679 4.738,4.71 1.129,2.031 1.692,4.377 1.692,7.037 0,2.66 -0.559,5.006 -1.674,7.04 -1.118,2.031 -2.694,3.601 -4.725,4.706 -2.031,1.106 -4.389,1.659 -7.071,1.659 H 0 -3.671 -6.512 v -46.44 H 0 v 19.63 h 9.695 l 9.904,-19.63 h 7.724 l -10.715,20.333 c 0.815,0.256 1.604,0.557 2.337,0.955"
             style="fill:#f5f6f6;fill-opacity:1;fill-rule:nonzero;stroke:none"
             id="path40" /></g><g
           id="g42"
           transform="translate(199.5776,167.36)"><path
             d="M 0,0 7.236,21.065 14.475,0 Z m 4.46,30.035 -17.107,-46.409 h 7.022 l 3.498,10.184 h 18.729 l 3.499,-10.184 h 7.022 L 10.016,30.035 Z"
             style="fill:#f5f6f6;fill-opacity:1;fill-rule:nonzero;stroke:none"
             id="path44" /></g><g
           id="g46"
           transform="translate(274.6299,162.7272)"><path
             d="m 0,0 -21.929,34.668 h -5.904 V -11.71 h 6.447 V 22.427 L 0.477,-11.71 H 6.448 V 34.668 H 0 Z"
             style="fill:#f5f6f6;fill-opacity:1;fill-rule:nonzero;stroke:none"
             id="path48" /></g><g
           id="g50"
           transform="translate(331.335,167.36)"><path
             d="m 0,0 c 0,-3.234 -0.941,-5.738 -2.825,-7.517 -1.882,-1.777 -4.539,-2.666 -7.963,-2.666 h -8.396 v 34.028 h 8.396 c 3.424,0 6.081,-0.889 7.963,-2.667 C -0.941,19.4 0,16.896 0,13.662 Z m -1.436,28.09 c -2.638,1.295 -5.821,1.945 -9.544,1.945 h -8.204 -2.104 -4.407 v -46.409 h 4.407 2.104 8.173 c 3.723,0 6.909,0.647 9.557,1.946 2.651,1.298 4.667,3.195 6.051,5.684 1.383,2.489 2.073,5.488 2.073,9.001 v 13.148 c 0,3.513 -0.69,6.512 -2.073,9.001 -1.384,2.49 -3.397,4.383 -6.033,5.684"
             style="fill:#f5f6f6;fill-opacity:1;fill-rule:nonzero;stroke:none"
             id="path52" /></g><g
           id="g54"
           transform="translate(385.3276,167.3942)"><path
             d="m 0,0 c 0,-2.087 -0.4,-3.922 -1.197,-5.507 -0.801,-1.586 -1.928,-2.81 -3.385,-3.672 -1.456,-0.861 -3.142,-1.292 -5.057,-1.292 -1.918,0 -3.604,0.431 -5.061,1.292 -1.457,0.862 -2.584,2.086 -3.384,3.672 -0.797,1.585 -1.197,3.42 -1.197,5.507 v 13.594 c 0,2.086 0.4,3.922 1.197,5.507 0.8,1.585 1.927,2.809 3.384,3.67 1.457,0.862 3.143,1.292 5.061,1.292 1.915,0 3.601,-0.43 5.057,-1.292 1.457,-0.861 2.584,-2.085 3.385,-3.67 C -0.4,17.516 0,15.68 0,13.594 Z m -1.087,28.358 c -2.468,1.414 -5.321,2.122 -8.552,2.122 -3.237,0 -6.087,-0.708 -8.555,-2.122 -2.468,-1.417 -4.38,-3.415 -5.73,-6.002 -1.353,-2.584 -2.028,-5.58 -2.028,-8.985 V 0.223 c 0,-3.406 0.675,-6.402 2.028,-8.986 1.35,-2.587 3.262,-4.588 5.73,-6.002 2.468,-1.414 5.318,-2.123 8.555,-2.123 3.231,0 6.084,0.709 8.552,2.123 2.467,1.414 4.379,3.415 5.73,6.002 1.349,2.584 2.027,5.58 2.027,8.986 v 13.148 c 0,3.405 -0.678,6.401 -2.027,8.985 -1.351,2.587 -3.263,4.585 -5.73,6.002"
             style="fill:#f5f6f6;fill-opacity:1;fill-rule:nonzero;stroke:none"
             id="path56" /></g><g
           id="g58"
           transform="translate(442.7988,162.7321)"><path
             d="m 0,0 -21.926,34.663 h -5.907 v -46.378 h 6.447 V 22.427 L 0.479,-11.715 H 6.447 V 34.663 H 0 Z"
             style="fill:#f5f6f6;fill-opacity:1;fill-rule:nonzero;stroke:none"
             id="path60" /></g><g
           id="g62"
           transform="translate(512.6182,167.36)"><path
             d="M 0,0 7.236,21.065 14.475,0 Z m 4.46,30.035 -17.107,-46.409 h 7.022 l 3.498,10.184 h 18.729 l 3.499,-10.184 h 7.021 L 10.016,30.035 Z"
             style="fill:#f5f6f6;fill-opacity:1;fill-rule:nonzero;stroke:none"
             id="path64" /></g><g
           id="g66"
           transform="translate(581.6533,175.0201)"><path
             d="m 0,0 c -1.885,0.788 -4.229,1.469 -7.04,2.043 -0.104,0.021 -0.223,0.043 -0.351,0.064 -0.126,0.022 -0.245,0.043 -0.348,0.065 -0.086,0.021 -0.168,0.036 -0.241,0.049 -0.074,0.008 -0.153,0.024 -0.239,0.046 -2.407,0.466 -4.282,0.919 -5.635,1.355 -1.35,0.437 -2.477,1.112 -3.38,2.028 -0.908,0.913 -1.36,2.172 -1.36,3.766 V 9.45 c 0,2.318 0.879,4.111 2.636,5.375 1.753,1.268 4.218,1.9 7.388,1.9 1.765,0 3.528,-0.324 5.281,-0.971 1.756,-0.65 3.518,-1.625 5.283,-2.923 l 3.702,5.171 c -1.511,1.087 -3.048,1.985 -4.612,2.696 -1.563,0.715 -3.148,1.253 -4.755,1.614 -1.606,0.36 -3.24,0.542 -4.899,0.542 -3.47,0 -6.439,-0.531 -8.907,-1.596 -2.467,-1.064 -4.345,-2.612 -5.631,-4.643 -1.289,-2.034 -1.933,-4.487 -1.933,-7.357 V 9.224 c 0,-3.278 0.692,-5.803 2.076,-7.58 1.381,-1.775 3.049,-3 4.994,-3.669 1.949,-0.672 4.475,-1.274 7.58,-1.805 l 0.48,-0.095 c 0.064,-0.021 0.132,-0.033 0.208,-0.033 0.073,0 0.143,-0.01 0.208,-0.031 2.104,-0.385 3.823,-0.803 5.155,-1.261 1.328,-0.458 2.413,-1.161 3.253,-2.107 0.843,-0.948 1.261,-2.23 1.261,-3.846 v -0.03 c 0,-2.279 -0.925,-4.038 -2.776,-5.285 -1.851,-1.243 -4.46,-1.866 -7.819,-1.866 -2.489,0 -4.798,0.382 -6.927,1.149 -2.129,0.766 -4.074,1.915 -5.839,3.448 l -4.056,-4.982 c 1.512,-1.276 3.133,-2.338 4.868,-3.191 1.734,-0.849 3.601,-1.487 5.602,-1.915 2,-0.425 2.999,-0.639 2.999,-0.639 h 3.353 c 3.595,0 6.664,0.529 9.209,1.582 2.541,1.051 4.483,2.584 5.824,4.594 1.341,2.013 2.01,4.432 2.01,7.264 v 0.063 c 0,3.042 -0.633,5.444 -1.9,7.197 C 3.458,-2.059 1.882,-0.788 0,0"
             style="fill:#f5f6f6;fill-opacity:1;fill-rule:nonzero;stroke:none"
             id="path68" /></g><g
           id="g70"
           transform="translate(636.3301,176.9352)"><path
             d="m 0,0 h -19.853 v 20.46 h -6.511 v -46.409 h 6.511 V -6.191 H 0 V -25.949 H 6.512 V 20.46 H 0 Z"
             style="fill:#f5f6f6;fill-opacity:1;fill-rule:nonzero;stroke:none"
             id="path72" /></g><g
           id="g74"
           transform="translate(693.292,164.1989)"><path
             d="M 0,0 C 0,-2.275 -0.755,-4.041 -2.267,-5.296 -3.778,-6.551 -6.182,-7.181 -9.48,-7.181 h -9.927 V 7.663 h 11.524 c 1.829,0 3.329,-0.306 4.498,-0.91 C -2.212,6.146 -1.356,5.278 -0.812,4.15 -0.272,3.023 0,1.671 0,0.098 Z m -8.778,27.164 c 2.724,0 4.767,-0.574 6.13,-1.723 1.362,-1.151 2.043,-2.885 2.043,-5.204 0,-2.214 -0.614,-3.882 -1.835,-5.011 -1.225,-1.127 -3.039,-1.69 -5.443,-1.69 H -19.407 V 27.164 Z M 2.363,8.57 c -1.361,1.054 -2.98,1.72 -4.852,1.997 1.872,0.34 3.441,1.005 4.706,1.996 1.267,0.989 2.208,2.18 2.825,3.573 0.617,1.392 0.926,2.889 0.926,4.486 0,2.594 -0.498,4.829 -1.5,6.701 -0.998,1.872 -2.511,3.321 -4.532,4.34 -2.022,1.024 -4.533,1.533 -7.532,1.533 h -11.811 -2.648 -3.83 v -46.409 h 3.83 2.648 12.354 c 2.743,0 5.15,0.523 7.211,1.565 2.066,1.041 3.651,2.522 4.759,4.437 1.105,1.915 1.658,4.126 1.658,6.637 v 0.097 C 6.575,1.354 6.212,3.055 5.491,4.63 4.768,6.203 3.723,7.52 2.363,8.57"
             style="fill:#f5f6f6;fill-opacity:1;fill-rule:nonzero;stroke:none"
             id="path76" /></g><g
           id="g78"
           transform="translate(743.5186,197.3951)"><path
             d="M 0,0 -10.149,-20.939 -20.302,0 h -7.244 l 14.141,-27.546 v -18.863 h 6.511 v 18.863 L 7.244,0 Z"
             style="fill:#f5f6f6;fill-opacity:1;fill-rule:nonzero;stroke:none"
             id="path80" /></g></g></g></g></svg>
